<svg width="30" height="30" viewBox="0 0 30 30" fill="none" xmlns="http://www.w3.org/2000/svg">
<path d="M27.5 14.8625V15.975C27.5 20.425 26.3875 21.525 21.95 21.525H8.05C3.6125 21.525 2.5 20.4125 2.5 15.975V8.05C2.5 3.6125 3.6125 2.5 8.05 2.5H10" stroke="#DF23E6" stroke-width="2" stroke-linecap="round" stroke-linejoin="round"/>
<path d="M15 21.5254V27.5004" stroke="#DF23E6" stroke-width="2" stroke-linecap="round" stroke-linejoin="round"/>
<path d="M2.5 16.25H27.5" stroke="#DF23E6" stroke-width="2" stroke-linecap="round" stroke-linejoin="round"/>
<path d="M9.375 27.5H20.625" stroke="#DF23E6" stroke-width="2" stroke-linecap="round" stroke-linejoin="round"/>
<path d="M22.3242 11.7117H16.3742C14.6492 11.7117 14.0742 10.5617 14.0742 9.41172V5.01172C14.0742 3.63672 15.1992 2.51172 16.5742 2.51172H22.3242C23.5992 2.51172 24.6242 3.53672 24.6242 4.81172V9.41172C24.6242 10.6867 23.5992 11.7117 22.3242 11.7117Z" stroke="#DF23E6" stroke-width="1.5" stroke-linecap="round" stroke-linejoin="round"/>
<path d="M26.1365 9.90107L24.624 8.83857V5.38857L26.1365 4.32607C26.8865 3.81357 27.499 4.12607 27.499 5.03857V9.20107C27.499 10.1136 26.8865 10.4261 26.1365 9.90107Z" stroke="#DF23E6" stroke-width="2" stroke-linecap="round" stroke-linejoin="round"/>
</svg>
