<svg width="30" height="30" viewBox="0 0 30 30" fill="none" xmlns="http://www.w3.org/2000/svg">
<path d="M12.5 21.1871H7.7625C3.55 21.1871 2.5 20.1371 2.5 15.9246V8.42461C2.5 4.21211 3.55 3.16211 7.7625 3.16211H20.925C25.1375 3.16211 26.1875 4.21211 26.1875 8.42461" stroke="#A32AF3" stroke-width="2" stroke-linecap="round" stroke-linejoin="round"/>
<path d="M12.5 26.8375V21.1875" stroke="#A32AF3" stroke-width="2" stroke-linecap="round" stroke-linejoin="round"/>
<path d="M2.5 16.1875H12.5" stroke="#A32AF3" stroke-width="2" stroke-linecap="round" stroke-linejoin="round"/>
<path d="M8.42676 26.8379H12.5018" stroke="#A32AF3" stroke-width="2" stroke-linecap="round" stroke-linejoin="round"/>
<path d="M27.4996 16.0008V23.1383C27.4996 26.1008 26.7621 26.8383 23.7996 26.8383H19.3621C16.3996 26.8383 15.6621 26.1008 15.6621 23.1383V16.0008C15.6621 13.0383 16.3996 12.3008 19.3621 12.3008H23.7996C26.7621 12.3008 27.4996 13.0383 27.4996 16.0008Z" stroke="#A32AF3" stroke-width="2" stroke-linecap="round" stroke-linejoin="round"/>
<path d="M21.5556 22.8125H21.5669" stroke="#A32AF3" stroke-width="2" stroke-linecap="round" stroke-linejoin="round"/>
</svg>
