<svg width="30" height="30" viewBox="0 0 30 30" fill="none" xmlns="http://www.w3.org/2000/svg">
<path d="M22.5006 8.95C22.4256 8.9375 22.3381 8.9375 22.2631 8.95C20.5381 8.8875 19.1631 7.475 19.1631 5.725C19.1631 3.9375 20.6006 2.5 22.3881 2.5C24.1756 2.5 25.6131 3.95 25.6131 5.725C25.6006 7.475 24.2256 8.8875 22.5006 8.95Z" stroke="#E67123" stroke-width="2" stroke-linecap="round" stroke-linejoin="round"/>
<path d="M21.2123 18.0502C22.9248 18.3377 24.8123 18.0377 26.1373 17.1502C27.8998 15.9752 27.8998 14.0502 26.1373 12.8752C24.7998 11.9877 22.8873 11.6877 21.1748 11.9877" stroke="#E67123" stroke-width="2" stroke-linecap="round" stroke-linejoin="round"/>
<path d="M7.46113 8.95C7.53613 8.9375 7.62363 8.9375 7.69863 8.95C9.42363 8.8875 10.7986 7.475 10.7986 5.725C10.7986 3.9375 9.36114 2.5 7.57364 2.5C5.78614 2.5 4.34863 3.95 4.34863 5.725C4.36113 7.475 5.73613 8.8875 7.46113 8.95Z" stroke="#E67123" stroke-width="2" stroke-linecap="round" stroke-linejoin="round"/>
<path d="M8.7498 18.0502C7.0373 18.3377 5.1498 18.0377 3.8248 17.1502C2.0623 15.9752 2.0623 14.0502 3.8248 12.8752C5.1623 11.9877 7.0748 11.6877 8.7873 11.9877" stroke="#E67123" stroke-width="2" stroke-linecap="round" stroke-linejoin="round"/>
<path d="M15.0006 18.2879C14.9256 18.2754 14.8381 18.2754 14.7631 18.2879C13.0381 18.2254 11.6631 16.8129 11.6631 15.0629C11.6631 13.2754 13.1006 11.8379 14.8881 11.8379C16.6756 11.8379 18.1131 13.2879 18.1131 15.0629C18.1006 16.8129 16.7256 18.2379 15.0006 18.2879Z" stroke="#E67123" stroke-width="2" stroke-linecap="round" stroke-linejoin="round"/>
<path d="M11.3639 22.2242C9.60137 23.3992 9.60137 25.3242 11.3639 26.4992C13.3639 27.8367 16.6389 27.8367 18.6389 26.4992C20.4014 25.3242 20.4014 23.3992 18.6389 22.2242C16.6514 20.8992 13.3639 20.8992 11.3639 22.2242Z" stroke="#E67123" stroke-width="2" stroke-linecap="round" stroke-linejoin="round"/>
</svg>
