<svg width="24" height="24" viewBox="0 0 24 24" fill="none" xmlns="http://www.w3.org/2000/svg">
<path d="M11.7639 0.0352267C11.6826 0.058711 10.5946 0.669304 9.3643 1.38558L7.11719 2.67722L9.82185 4.12151L12.5265 5.56579L12.7197 5.43663C12.8214 5.36618 13.6755 4.83778 14.6211 4.23893C15.5667 3.65182 16.492 3.06471 16.6649 2.94729L17.0004 2.73593L14.6618 1.38558C13.2688 0.575367 12.252 0.0234844 12.13 0C12.0181 0 11.8554 0.0117423 11.7639 0.0352267Z" fill="#716F6F"/>
<path d="M6.56721 6.55036L6.58755 9.27454L6.74007 9.53287C6.88242 9.77946 7.03494 9.86165 9.28205 11.165C10.5937 11.9283 11.7427 12.5624 11.8342 12.5858L11.9969 12.6211L11.9867 9.67378L11.9664 6.71475L9.4244 5.3644C8.03139 4.6129 6.81124 3.96708 6.71973 3.92011L6.54688 3.82617L6.56721 6.55036Z" fill="#716F6F"/>
<path d="M15.252 5.33077L13.1472 6.65764L13.1269 9.35834C13.1167 10.8496 13.1269 12.059 13.1574 12.059C13.1879 12.059 14.0725 11.5424 15.1503 10.9201C16.9703 9.86325 17.1127 9.76932 17.255 9.52273L17.4076 9.2644L17.4279 6.63415C17.4381 5.18987 17.4177 4.00391 17.3974 4.00391C17.3771 4.00391 16.4213 4.60276 15.252 5.33077Z" fill="#716F6F"/>
<path d="M5.19649 11.4129C5.11515 11.4363 4.00684 12.0587 2.73585 12.7984L0.427734 14.137L1.32251 14.7007C1.81057 15.0177 2.73585 15.5931 3.36626 15.9923C4.00684 16.3915 4.60675 16.7673 4.70843 16.8377L4.90162 16.9669L7.60629 15.5226L10.311 14.0783L8.03334 12.7397C6.67084 11.953 5.67438 11.4129 5.55237 11.3894C5.45069 11.3776 5.288 11.3894 5.19649 11.4129Z" fill="#716F6F"/>
<path d="M18.3327 11.4132C18.2513 11.4367 17.1634 12.0473 15.9331 12.7636L13.6758 14.0669L16.3804 15.5112L19.0851 16.9555L19.2681 16.8381C19.38 16.7676 20.2341 16.2275 21.1797 15.6404C22.1253 15.0533 23.0506 14.4662 23.2235 14.3488L23.559 14.1374L21.2204 12.787C19.8274 11.9768 18.8106 11.425 18.6886 11.4015C18.5767 11.378 18.4242 11.3897 18.3327 11.4132Z" fill="#716F6F"/>
<path d="M8.15469 16.6611L5.46019 18.0936L5.43986 21.0409L5.42969 23.9882L5.62288 23.9412C5.72456 23.9178 6.87353 23.2837 8.16486 22.5439C10.3001 21.311 10.534 21.1583 10.6662 20.947C10.7475 20.8061 10.8289 20.6182 10.8492 20.5125C10.8695 20.4068 10.8695 19.1739 10.8695 17.7766L10.8492 15.2168L8.15469 16.6611Z" fill="#716F6F"/>
<path d="M13.1375 17.9292L13.1579 20.6534L13.3104 20.9118C13.4527 21.1466 13.6052 21.2523 15.8219 22.5439C17.1233 23.2954 18.2723 23.9295 18.374 23.953L18.5672 23.9999L18.557 21.0527L18.5367 18.1054L15.9947 16.755C14.6017 16.0035 13.3816 15.3577 13.29 15.3107L13.1172 15.2168L13.1375 17.9292Z" fill="#716F6F"/>
<path d="M0 18.0131L0.0203358 20.6433L0.172855 20.9016C0.315206 21.1365 0.457557 21.2304 2.27761 22.299C3.34525 22.9213 4.24002 23.4379 4.27053 23.4379C4.29086 23.4379 4.30103 22.2285 4.30103 20.7372L4.28069 18.0365L2.17594 16.7097C1.01679 15.9817 0.0508396 15.3828 0.0305038 15.3828C0.0101679 15.3828 0 16.5688 0 18.0131Z" fill="#716F6F"/>
<path d="M21.8204 16.7097L19.7156 18.0365L19.6953 20.7372C19.6953 22.2285 19.7055 23.4379 19.7258 23.4379C19.7563 23.4262 20.6409 22.9213 21.7187 22.299C23.5388 21.2422 23.6811 21.1482 23.8235 20.9016L23.976 20.6433L23.9963 18.0131C24.0065 16.5688 23.9862 15.3828 23.9658 15.3828C23.9455 15.3828 22.9796 15.9817 21.8204 16.7097Z" fill="#716F6F"/>
</svg>
