<svg width="20" height="19" viewBox="0 0 20 19" fill="none" xmlns="http://www.w3.org/2000/svg">
<path d="M4.53033 0.46967C4.82322 0.762563 4.82322 1.23744 4.53033 1.53033L2.03033 4.03033C1.73744 4.32322 1.26256 4.32322 0.96967 4.03033C0.676777 3.73744 0.676777 3.26256 0.96967 2.96967L3.46967 0.46967C3.76256 0.176777 4.23744 0.176777 4.53033 0.46967Z" fill="#716F6F"/>
<path fill-rule="evenodd" clip-rule="evenodd" d="M10 1.5C5.30558 1.5 1.5 5.30558 1.5 10C1.5 14.6944 5.30558 18.5 10 18.5C14.6944 18.5 18.5 14.6944 18.5 10C18.5 5.30558 14.6944 1.5 10 1.5ZM10.75 5C10.75 4.58579 10.4142 4.25 10 4.25C9.58579 4.25 9.25 4.58579 9.25 5V10C9.25 10.2586 9.38321 10.4989 9.6025 10.636L12.6025 12.511C12.9538 12.7305 13.4165 12.6238 13.636 12.2725C13.8555 11.9212 13.7488 11.4585 13.3975 11.239L10.75 9.58431V5Z" fill="#716F6F"/>
<path d="M15.4697 1.53033C15.1768 1.23744 15.1768 0.762563 15.4697 0.46967C15.7626 0.176777 16.2374 0.176777 16.5303 0.46967L19.0303 2.96967C19.3232 3.26256 19.3232 3.73744 19.0303 4.03033C18.7374 4.32322 18.2626 4.32322 17.9697 4.03033L15.4697 1.53033Z" fill="#716F6F"/>
</svg>
